<svg width="1920" height="400" viewBox="0 0 1920 400" fill="none" xmlns="http://www.w3.org/2000/svg">
<mask id="mask0_756_156" style="mask-type:luminance" maskUnits="userSpaceOnUse" x="0" y="0" width="1920" height="400">
<path d="M1920 0H0V400H1920V0Z" fill="white"/>
</mask>
<g mask="url(#mask0_756_156)">
<path d="M1920 0H0V400H1920V0Z" fill="white"/>
<path d="M1876.37 20.3868H43.6267V372.856H1876.37V20.3868Z" fill="white"/>
<path d="M956.264 329.059C1173.59 235.881 1275.87 206.491 1380.5 200.253C1514.75 192.26 1585.93 199.594 1676.36 215.703C1766.79 231.812 1847.67 253.734 1939.67 268.77C2109.96 296.595 2315.3 298.73 2493.78 274.516C2551.6 290.413 2551.26 322.721 2512.2 345.09C2473.18 367.46 2405.88 381.97 2339.76 394.614C1946.07 469.849 1506.47 509.2 1069.95 543.262C981.612 550.16 885.271 556.599 805.068 543.084C752 534.151 703.46 508.227 721.293 486.819C739.988 464.383 321.852 459.073 385.33 451.538C650.854 420.013 690.185 443.142 956.264 329.059Z" fill="#010101"/>
<path opacity="0.74" d="M838.942 520.246C871.823 477.198 926.226 440.01 982.875 404.881C1057.54 358.595 1147.34 312.011 1260.52 305.935C1351.47 301.054 1438.72 323.433 1522.74 342.807C1606.76 362.181 1701.13 379.198 1787.86 363.692C1825.51 356.952 1858.86 344.434 1887.92 329.875C1966.49 290.512 2014.83 237.154 2061.41 185.075" stroke="white" stroke-width="0.5" stroke-miterlimit="10"/>
<path opacity="0.8" d="M832.014 525.01C866.62 482.394 922.5 445.904 980.566 411.472C1057.04 366.133 1148.7 320.661 1262.03 315.946C1353.07 312.161 1439.31 335.569 1522.47 355.923C1605.62 376.276 1699.16 394.422 1786.44 379.962C1824.34 373.686 1858.15 361.567 1887.8 347.373C1967.91 308.99 2018.4 256.263 2067.07 204.798" stroke="white" stroke-width="0.74" stroke-miterlimit="10"/>
<path opacity="0.87" d="M825.118 529.792C861.479 487.607 918.837 451.797 978.257 418.096C1056.58 373.686 1150.05 329.36 1263.51 325.99C1354.67 323.284 1439.89 347.721 1522.16 369.071C1604.42 390.421 1697.19 409.662 1785.03 396.265C1823.17 390.437 1857.47 378.733 1887.67 364.904C1969.32 327.517 2021.97 275.405 2072.74 224.554" stroke="white" stroke-width="0.99" stroke-miterlimit="10"/>
<path opacity="0.94" d="M818.191 534.573C856.275 492.82 915.111 457.707 975.948 424.72C1056.09 381.257 1151.41 338.043 1265.02 336.034C1356.27 334.424 1440.51 359.89 1521.91 382.22C1603.28 404.549 1695.25 424.919 1783.64 412.567C1822 407.205 1856.79 395.916 1887.58 382.435C1970.77 346.028 2025.54 294.546 2078.44 244.293" stroke="white" stroke-width="1.24" stroke-miterlimit="10"/>
<path d="M811.294 539.338C851.134 498.033 911.447 463.601 973.67 431.327C1055.66 388.81 1152.79 346.709 1266.53 346.078C1357.9 345.563 1441.12 372.043 1521.63 395.368C1602.15 418.693 1693.31 440.176 1782.25 428.87C1820.86 423.973 1856.15 413.082 1887.49 399.967C1972.22 364.539 2029.14 313.688 2084.16 264.049" stroke="white" stroke-width="1.49" stroke-miterlimit="10"/>
</g>
</svg>
