<svg width="89" height="60" viewBox="0 0 89 60" fill="none" xmlns="http://www.w3.org/2000/svg">
<g clip-path="url(#clip0_756_200)">
<path d="M65.6666 21.6043C72.0341 24.3654 79.8347 25.9899 88.2596 25.9899V16.1561C86.665 16.1565 85.0748 16.0555 83.5149 15.8549V23.5955C75.0906 23.5955 67.291 21.9712 60.9221 19.2103V39.2785C60.9221 49.3177 47.5053 57.4554 30.9562 57.4554C24.7813 57.4554 19.0418 56.323 14.2742 54.3809C19.7158 57.756 27.3044 59.8496 35.6996 59.8496C52.2501 59.8496 65.6672 51.7119 65.6672 41.6723V21.6043H65.6666ZM71.52 11.6832C68.2656 9.52676 66.1288 6.73986 65.6666 3.65876V2.394H61.1703C62.3021 6.30993 66.1629 9.65545 71.52 11.6832ZM24.7414 46.6773C22.9232 45.2315 21.9403 43.4624 21.945 41.6435C21.945 37.0521 28.0817 33.3292 35.6529 33.3292C37.0637 33.3287 38.4661 33.4601 39.811 33.7188V23.665C38.2394 23.5345 36.6535 23.4788 35.0683 23.4993V31.3245C33.7227 31.0658 32.3196 30.9345 30.9081 30.9352C23.3372 30.9352 17.2009 34.6577 17.2009 39.2497C17.2009 42.4968 20.268 45.3079 24.7414 46.6773Z" fill="#FF004F"/>
<path d="M60.922 19.2101C67.2913 21.971 75.0902 23.5953 83.5148 23.5953V15.8547C78.8123 15.247 74.6494 13.7565 71.5196 11.6832C66.1622 9.65524 62.3021 6.30972 61.1702 2.394H49.3601V41.6719C49.3332 46.2509 43.2071 49.9585 35.6522 49.9585C31.2006 49.9585 27.2453 48.6714 24.7407 46.6771C20.268 45.3079 17.2005 42.4965 17.2005 39.2499C17.2005 34.6583 23.3368 30.9354 30.9077 30.9354C32.3583 30.9354 33.7564 31.0723 35.0678 31.3248V23.4995C18.8092 23.7033 5.73364 31.7615 5.73364 41.6721C5.73364 46.6194 8.98967 51.1043 14.2744 54.3813C19.0421 56.323 24.7813 57.4558 30.9565 57.4558C47.5059 57.4558 60.9224 49.3175 60.9224 39.2785L60.922 19.2101Z" fill="black"/>
<path d="M83.5148 15.8545V13.7619C79.2743 13.7657 75.1175 13.0453 71.5196 11.6832C74.7044 13.7982 78.898 15.2566 83.5148 15.8549M61.1699 2.39379C61.0621 2.01964 60.9793 1.64298 60.9218 1.26476V0H44.6147V39.2783C44.5888 43.8569 38.4627 47.5645 30.9074 47.5645C28.7656 47.5664 26.653 47.2626 24.7404 46.6775C27.2451 48.6714 31.2003 49.9583 35.6519 49.9583C43.2064 49.9583 49.3332 46.2511 49.3598 41.6721V2.394L61.1699 2.39379ZM35.0686 23.4993V21.2712C33.7059 21.1583 32.3322 21.1018 30.9569 21.102C14.4057 21.102 0.989258 29.2401 0.989258 39.2783C0.989258 45.5719 6.2621 51.1183 14.2748 54.3809C8.99005 51.1041 5.73403 46.619 5.73403 41.6719C5.73403 31.7615 18.8093 23.7031 35.0686 23.4993Z" fill="#00F2EA"/>
</g>
<defs>
<clipPath id="clip0_756_200">
<rect width="87.2727" height="60" fill="white" transform="translate(0.989258)"/>
</clipPath>
</defs>
</svg>
