<svg width="88" height="60" viewBox="0 0 88 60" fill="none" xmlns="http://www.w3.org/2000/svg">
<g clip-path="url(#clip0_756_192)">
<path d="M87.3528 30C87.3528 13.4316 67.816 0 43.7164 0C19.6169 0 0.0800781 13.4316 0.0800781 30C0.0800781 44.9738 16.0374 57.3851 36.8983 59.6355V38.6719H25.8187V30H36.8983V23.3906C36.8983 15.8719 43.413 11.7188 53.3805 11.7188C58.1546 11.7188 63.1483 12.3047 63.1483 12.3047V19.6875H57.646C52.2252 19.6875 50.5346 22.0001 50.5346 24.3727V30H62.6369L60.7022 38.6719H50.5346V59.6355C71.3955 57.3851 87.3528 44.974 87.3528 30Z" fill="#1877F2"/>
<path d="M60.7022 38.6719L62.6369 30H50.5346V24.3727C50.5346 21.9998 52.2252 19.6875 57.646 19.6875H63.1483V12.3047C63.1483 12.3047 58.1546 11.7188 53.3802 11.7188C43.413 11.7188 36.8983 15.8719 36.8983 23.3906V30H25.8187V38.6719H36.8983V59.6355C39.1538 59.8785 41.4334 60.0004 43.7165 60C45.9995 60.0004 48.2791 59.8785 50.5346 59.6355V38.6719H60.7022Z" fill="white"/>
</g>
<defs>
<clipPath id="clip0_756_192">
<rect width="87.2727" height="60" fill="white" transform="translate(0.0800781)"/>
</clipPath>
</defs>
</svg>
