<svg width="88" height="60" viewBox="0 0 88 60" fill="none" xmlns="http://www.w3.org/2000/svg">
<g clip-path="url(#clip0_756_195)">
<path d="M66.971 0H20.6074C9.31064 0 0.152832 6.296 0.152832 14.0625V45.9375C0.152832 53.704 9.31064 60 20.6074 60H66.971C78.2677 60 87.4256 53.704 87.4256 45.9375V14.0625C87.4256 6.296 78.2677 0 66.971 0Z" fill="url(#paint0_radial_756_195)"/>
<path d="M66.971 0H20.6074C9.31064 0 0.152832 6.296 0.152832 14.0625V45.9375C0.152832 53.704 9.31064 60 20.6074 60H66.971C78.2677 60 87.4256 53.704 87.4256 45.9375V14.0625C87.4256 6.296 78.2677 0 66.971 0Z" fill="url(#paint1_radial_756_195)"/>
<path d="M43.7922 6.5625C34.5338 6.5625 33.3716 6.59039 29.7355 6.70406C26.1062 6.81844 23.6288 7.21336 21.4613 7.79297C19.2188 8.39156 17.3169 9.19242 15.4221 10.4955C13.5256 11.7984 12.3607 13.106 11.4873 14.647C10.6419 16.1377 10.0668 17.8416 9.90347 20.3355C9.74086 22.8356 9.69824 23.6348 9.69824 30.0002C9.69824 36.3656 9.73915 37.162 9.90415 39.6619C10.0712 42.157 10.6456 43.8602 11.488 45.3504C12.3594 46.8921 13.5243 48.1997 15.4197 49.5023C17.3142 50.8062 19.2161 51.6089 21.4569 52.2075C23.6261 52.7871 26.1038 53.182 29.7324 53.2964C33.3689 53.4101 34.5301 53.438 43.7881 53.438C53.0476 53.438 54.206 53.4101 57.8421 53.2964C61.4714 53.182 63.9515 52.7871 66.1207 52.2075C68.3622 51.6089 70.2614 50.8062 72.1555 49.5023C74.052 48.1997 75.2165 46.8921 76.0903 45.3511C76.9282 43.8602 77.5037 42.1566 77.6741 39.6623C77.8374 37.1625 77.88 36.3656 77.88 30.0002C77.88 23.6348 77.8374 22.8361 77.6741 20.336C77.5037 17.8409 76.9282 16.1379 76.0903 14.6477C75.2165 13.106 74.052 11.7984 72.1555 10.4955C70.2594 9.19195 68.3629 8.39109 66.1187 7.7932C63.9454 7.21336 61.4666 6.8182 57.8373 6.70406C54.2008 6.59039 53.0431 6.5625 43.7816 6.5625H43.7922ZM40.7339 10.7862C41.6418 10.7852 42.6546 10.7862 43.7922 10.7862C52.8948 10.7862 53.9735 10.8087 57.568 10.9209C60.8919 11.0255 62.696 11.4073 63.8977 11.7281C65.4887 12.1528 66.6229 12.6607 67.8154 13.4812C69.0086 14.3016 69.747 15.0827 70.3664 16.1766C70.8331 17.0016 71.3891 18.2419 71.5405 20.527C71.7038 22.9978 71.7393 23.7398 71.7393 29.9948C71.7393 36.2498 71.7038 36.9921 71.5405 39.4627C71.3885 41.7478 70.8331 42.9881 70.3664 43.8134C69.7487 44.9072 69.0086 45.686 67.8154 46.5059C66.6222 47.3262 65.4894 47.8338 63.8977 48.2587C62.6973 48.581 60.8919 48.9619 57.568 49.0664C53.9741 49.1787 52.8948 49.203 43.7922 49.203C34.6893 49.203 33.6103 49.1787 30.0168 49.0664C26.6929 48.9609 24.8888 48.5791 23.6861 48.2583C22.0954 47.8334 20.9588 47.3257 19.7656 46.5054C18.5724 45.6851 17.834 44.9058 17.2146 43.8115C16.7479 42.9862 16.1919 41.7459 16.0405 39.4608C15.8772 36.99 15.8445 36.248 15.8445 29.989C15.8445 23.7302 15.8772 22.992 16.0405 20.5212C16.1926 18.236 16.7479 16.9957 17.2146 16.1695C17.8327 15.0757 18.5724 14.2945 19.766 13.4742C20.9591 12.6539 22.0954 12.146 23.6864 11.7204C24.8881 11.3981 26.6929 11.0173 30.0168 10.9123C33.1616 10.8145 34.3804 10.7852 40.7339 10.7803V10.7862ZM61.9899 14.6777C59.7314 14.6777 57.899 15.9363 57.899 17.4893C57.899 19.042 59.7314 20.3018 61.9899 20.3018C64.2485 20.3018 66.0808 19.042 66.0808 17.4893C66.0808 15.9366 64.2485 14.6768 61.9899 14.6768V14.6777ZM43.7922 17.9639C34.124 17.9639 26.2852 23.3531 26.2852 30.0002C26.2852 36.6473 34.124 42.034 43.7922 42.034C53.4607 42.034 61.2969 36.6473 61.2969 30.0002C61.2969 23.3534 53.4601 17.9639 43.7915 17.9639H43.7922ZM43.7922 22.1876C50.068 22.1876 55.1561 25.6852 55.1561 30.0002C55.1561 34.3148 50.068 37.8129 43.7922 37.8129C37.5161 37.8129 32.4287 34.3148 32.4287 30.0002C32.4287 25.6852 37.5161 22.1876 43.7922 22.1876Z" fill="white"/>
</g>
<defs>
<radialGradient id="paint0_radial_756_195" cx="0" cy="0" r="1" gradientUnits="userSpaceOnUse" gradientTransform="translate(23.3346 64.6212) rotate(-90) scale(59.4645 80.446)">
<stop stop-color="#FFDD55"/>
<stop offset="0.1" stop-color="#FFDD55"/>
<stop offset="0.5" stop-color="#FF543E"/>
<stop offset="1" stop-color="#C837AB"/>
</radialGradient>
<radialGradient id="paint1_radial_756_195" cx="0" cy="0" r="1" gradientUnits="userSpaceOnUse" gradientTransform="translate(-14.4657 4.32211) rotate(73.7672) scale(27.1461 156.053)">
<stop stop-color="#3771C8"/>
<stop offset="0.128" stop-color="#3771C8"/>
<stop offset="1" stop-color="#6600FF" stop-opacity="0"/>
</radialGradient>
<clipPath id="clip0_756_195">
<rect width="87.2727" height="60" fill="white" transform="translate(0.152832)"/>
</clipPath>
</defs>
</svg>
